<svg width="19" height="18" viewBox="0 0 19 18" fill="none" xmlns="http://www.w3.org/2000/svg">
<path d="M17.533 9.46618C17.8939 8.98923 18.0938 8.40485 18.0938 7.79684C18.0938 6.83219 17.5545 5.91911 16.6865 5.40993C16.4631 5.27886 16.2087 5.20988 15.9496 5.21012H10.7977L10.9266 2.56969C10.9566 1.93161 10.7311 1.32575 10.2928 0.863834C10.0777 0.63616 9.81819 0.455015 9.53033 0.331592C9.24246 0.208169 8.93235 0.145091 8.61914 0.146256C7.50195 0.146256 6.51367 0.898209 6.21719 1.97458L4.37168 8.65622H4.36523V17.8515H14.5123C14.71 17.8515 14.9033 17.8129 15.0816 17.7355C16.1043 17.2994 16.7639 16.3004 16.7639 15.1918C16.7639 14.9211 16.7252 14.6547 16.6479 14.3968C17.0088 13.9199 17.2086 13.3355 17.2086 12.7275C17.2086 12.4568 17.1699 12.1904 17.0926 11.9326C17.4535 11.4556 17.6533 10.8713 17.6533 10.2632C17.649 9.99255 17.6104 9.72399 17.533 9.46618ZM0.90625 9.34372V17.164C0.90625 17.5443 1.21348 17.8515 1.59375 17.8515H2.99023V8.65622H1.59375C1.21348 8.65622 0.90625 8.96344 0.90625 9.34372Z" fill="#F1737B"/>
</svg>
